<?xml version="1.0" standalone="no"?>
<!DOCTYPE svg PUBLIC "-//W3C//DTD SVG 20010904//EN"
 "http://www.w3.org/TR/2001/REC-SVG-20010904/DTD/svg10.dtd">
<svg version="1.0" xmlns="http://www.w3.org/2000/svg"
 width="531.000000pt" height="202.000000pt" viewBox="0 0 531.000000 202.000000"
 preserveAspectRatio="xMidYMid meet">

<g transform="translate(0.000000,202.000000) scale(0.100000,-0.100000)"
fill="#000000" stroke="none">
<path d="M3575 1433 c-64 -15 -87 -94 -39 -132 57 -45 154 -11 154 53 0 49
-61 91 -115 79z"/>
<path d="M4050 1411 c-93 -33 -160 -131 -160 -233 0 -28 0 -28 -65 -28 l-65 0
0 -50 0 -50 65 0 65 0 0 -230 0 -230 70 0 70 0 0 230 0 230 140 0 140 0 0 50
0 50 -140 0 -140 0 0 36 c0 95 58 139 174 131 39 -3 81 -8 94 -12 21 -7 22 -5
22 44 0 47 -2 52 -27 62 -16 6 -64 13 -108 15 -62 4 -92 0 -135 -15z"/>
<path d="M320 1005 l0 -415 70 0 70 0 0 71 0 71 48 -50 c89 -95 222 -128 347
-85 68 23 136 92 165 169 28 76 25 203 -7 276 -59 131 -219 198 -366 154 -55
-17 -134 -73 -162 -115 l-20 -31 -5 183 -5 182 -67 3 -68 3 0 -416z m492 65
c64 -43 83 -83 83 -175 0 -72 -3 -86 -28 -123 -72 -110 -243 -110 -341 -1 -54
59 -78 112 -66 145 28 72 110 153 176 174 51 16 139 6 176 -20z"/>
<path d="M2800 1005 l0 -415 63 0 64 0 106 126 106 125 44 -68 c24 -37 59 -94
78 -125 l34 -57 82 -1 83 0 -115 176 c-66 101 -112 180 -108 187 4 7 45 57 92
112 47 55 92 108 100 118 13 16 9 17 -65 17 l-79 0 -170 -207 -170 -208 -5
315 -5 315 -67 3 -68 3 0 -416z"/>
<path d="M1370 1196 c-94 -27 -163 -78 -207 -154 -22 -38 -28 -61 -31 -133 -4
-77 -1 -93 20 -141 32 -67 86 -120 157 -156 52 -25 64 -27 186 -27 112 0 136
3 177 22 60 28 134 95 160 148 30 57 36 176 13 246 -25 73 -100 148 -180 179
-73 28 -225 37 -295 16z m240 -118 c24 -13 57 -40 74 -61 26 -32 31 -49 34
-107 7 -122 -52 -198 -169 -220 -110 -20 -219 22 -259 100 -22 44 -27 140 -9
187 15 40 57 82 104 104 59 27 168 26 225 -3z"/>
<path d="M2197 1200 c-181 -46 -287 -214 -242 -383 43 -163 173 -243 379 -235
84 3 111 9 164 33 125 57 190 166 180 305 -9 120 -82 217 -200 262 -60 23
-218 33 -281 18z m256 -136 c55 -38 87 -101 87 -170 0 -89 -34 -145 -115 -186
-57 -30 -165 -29 -229 1 -149 72 -151 291 -4 366 48 24 61 26 136 23 71 -4 88
-8 125 -34z"/>
<path d="M3530 893 l0 -303 70 0 70 0 0 303 0 302 -70 0 -70 0 0 -302z"/>
<path d="M4340 1188 c1 -7 61 -139 134 -293 121 -255 135 -280 160 -283 14 -2
26 -6 26 -8 0 -20 -36 -66 -60 -79 -41 -21 -135 -19 -189 5 -24 11 -45 20 -47
20 -2 0 -4 -22 -4 -50 0 -48 1 -50 43 -71 27 -14 67 -24 114 -27 64 -4 79 -1
128 22 30 15 66 42 79 59 24 32 346 690 346 708 0 5 -31 9 -68 9 l-69 0 -110
-242 c-61 -134 -114 -241 -119 -238 -5 2 -56 110 -115 240 l-105 235 -72 3
c-54 2 -72 0 -72 -10z"/>
</g>
</svg>
